<svg width="47" height="44" viewBox="0 0 47 44" fill="none" xmlns="http://www.w3.org/2000/svg">
<path d="M0.143707 43.4809V35.7341H46.3314V43.4809H0.143707ZM9.38124 27.9873H12.6144L30.6276 12.9294L28.9533 11.5253L27.3367 10.1696L9.38124 25.2759V27.9873ZM4.76248 31.8607V23.6297L30.6276 1.98702C31.051 1.63196 31.5417 1.35759 32.0998 1.16392C32.6579 0.970248 33.2449 0.873413 33.8607 0.873413C34.4766 0.873413 35.0731 0.970248 35.6505 1.16392C36.2278 1.35759 36.7474 1.6481 37.2093 2.03544L40.3847 4.74682C40.8466 5.10189 41.1834 5.52151 41.3951 6.00568C41.6068 6.48986 41.7126 6.99018 41.7126 7.50663C41.7126 7.99081 41.6068 8.46691 41.3951 8.93495C41.1834 9.40299 40.8466 9.83068 40.3847 10.218L14.5774 31.8607H4.76248ZM30.6276 12.9294L28.9533 11.5253L27.3367 10.1696L30.6276 12.9294Z" fill="#515BB5"/>
</svg>
