<svg width="47" height="40" viewBox="0 0 47 40" fill="none" xmlns="http://www.w3.org/2000/svg">
<path d="M23.5971 31.8607C24.4054 31.8607 25.0886 31.6267 25.6467 31.1586C26.2048 30.6906 26.4839 30.1177 26.4839 29.4398C26.4839 28.762 26.2048 28.189 25.6467 27.721C25.0886 27.253 24.4054 27.0189 23.5971 27.0189C22.7889 27.0189 22.1057 27.253 21.5476 27.721C20.9895 28.189 20.7104 28.762 20.7104 29.4398C20.7104 30.1177 20.9895 30.6906 21.5476 31.1586C22.1057 31.6267 22.7889 31.8607 23.5971 31.8607ZM21.5187 24.4044H25.7911C25.7911 23.3392 25.9354 22.5 26.2241 21.8867C26.5127 21.2734 27.3307 20.4341 28.6778 19.369C29.6785 18.5297 30.4676 17.7308 31.0449 16.9723C31.6223 16.2137 31.9109 15.3019 31.9109 14.2367C31.9109 12.4291 31.1219 11.0411 29.5438 10.0728C27.9657 9.10441 26.099 8.62024 23.9436 8.62024C21.7496 8.62024 19.9695 9.10441 18.6031 10.0728C17.2367 11.0411 16.2841 12.2031 15.7452 13.5588L19.5557 14.8177C19.7482 14.2367 20.1812 13.6073 20.8548 12.9294C21.5283 12.2516 22.5579 11.9126 23.9436 11.9126C25.1752 11.9126 26.099 12.1951 26.7148 12.7599C27.3307 13.3248 27.6386 13.9462 27.6386 14.624C27.6386 15.2696 27.4076 15.8748 26.9458 16.4397C26.4839 17.0046 25.9065 17.5291 25.2137 18.0133C23.5202 19.2721 22.4809 20.2243 22.096 20.8699C21.7111 21.5155 21.5187 22.6936 21.5187 24.4044ZM23.7126 39.6075C20.518 39.6075 17.5158 39.0991 14.706 38.0824C11.8963 37.0656 9.45217 35.6857 7.37372 33.9427C5.29528 32.1996 3.64984 30.1499 2.43741 27.7936C1.22499 25.4373 0.618774 22.9196 0.618774 20.2405C0.618774 17.5614 1.22499 15.0436 2.43741 12.6873C3.64984 10.331 5.29528 8.28131 7.37372 6.53828C9.45217 4.79524 11.8963 3.41534 14.706 2.39857C17.5158 1.3818 20.518 0.873413 23.7126 0.873413C26.9073 0.873413 29.9095 1.3818 32.7192 2.39857C35.529 3.41534 37.9731 4.79524 40.0515 6.53828C42.13 8.28131 43.7754 10.331 44.9878 12.6873C46.2002 15.0436 46.8065 17.5614 46.8065 20.2405C46.8065 22.9196 46.2002 25.4373 44.9878 27.7936C43.7754 30.1499 42.13 32.1996 40.0515 33.9427C37.9731 35.6857 35.529 37.0656 32.7192 38.0824C29.9095 39.0991 26.9073 39.6075 23.7126 39.6075ZM23.7126 35.7341C28.8702 35.7341 33.2388 34.2332 36.8184 31.2313C40.3979 28.2294 42.1877 24.5658 42.1877 20.2405C42.1877 15.9152 40.3979 12.2516 36.8184 9.24967C33.2388 6.24777 28.8702 4.74682 23.7126 4.74682C18.555 4.74682 14.1864 6.24777 10.6069 9.24967C7.02732 12.2516 5.23754 15.9152 5.23754 20.2405C5.23754 24.5658 7.02732 28.2294 10.6069 31.2313C14.1864 34.2332 18.555 35.7341 23.7126 35.7341Z" fill="#515BB5"/>
</svg>
